PathFileType	4	(X/Y/Z)	P:\Projects\LMB_grand_challenge_database\project_only\opensim\experimental_data\SixthCompetition/DM_ngait_og6_new.trc
DataRate	CameraRate	NumFrames	NumMarkers	Units	OrigDataRate	OrigDataStartFrame	OrigNumFrames
120	120	4	68	mm	120	128	342
Frame#	Time	Sternum			Neck			R_Shoulder			L_Shoulder			Xiphoid			Thoracic			R_Asis			L_Asis			R_Psis			L_Psis			Lumbar			R_Elbow			R_ElbowMedial			R_ShoulderAnterior			R_ShoulderPosterior			R_Wrist			R_Radius			R_Ulna			L_Elbow			L_ElbowMedial			L_ShoulderAnterior			L_ShoulderPosterior			L_Wrist			L_Ulna			L_Radius			L_Thigh_Superior			L_Thigh_Inferior			L_Thigh_Lateral			L_Knee_Lateral			L_Knee_Medial			L_Patella			L_Shank_Superior			L_Shank_Inferior			L_Shank_Lateral			L_Ankle_Lateral			L_Ankle_Medial			R_Thigh_Superior			R_Thigh_Inferior			R_Thigh_Lateral			R_Knee_Lateral			R_Knee_Medial			R_Patella			R_Shank_Superior			R_Shank_Inferior			R_Shank_Lateral			R_Ankle_Lateral			RankleMedial			R_Heel			R_Toe			R_Midfoot_Medial			R_Midfoot_Lateral			R_Hindfoot			R_Midfoot_Superior			R_ToeMedial			R_ToeLateral			L_Heel			L_Toe			L_Midfoot_Medial			L_Midfoot_Lateral			L_Hindfoot			L_Midfoot_Superior			L_ToeMedial			L_ToeLateral			Oglobal			Sacral			Xglobal			Yglobal			Zglobal			
		X1	Y1	Z1	X2	Y2	Z2	X3	Y3	Z3	X4	Y4	Z4	X5	Y5	Z5	X6	Y6	Z6	X7	Y7	Z7	X8	Y8	Z8	X9	Y9	Z9	X10	Y10	Z10	X11	Y11	Z11	X12	Y12	Z12	X13	Y13	Z13	X14	Y14	Z14	X15	Y15	Z15	X16	Y16	Z16	X17	Y17	Z17	X18	Y18	Z18	X19	Y19	Z19	X20	Y20	Z20	X21	Y21	Z21	X22	Y22	Z22	X23	Y23	Z23	X24	Y24	Z24	X25	Y25	Z25	X26	Y26	Z26	X27	Y27	Z27	X28	Y28	Z28	X29	Y29	Z29	X30	Y30	Z30	X31	Y31	Z31	X32	Y32	Z32	X33	Y33	Z33	X34	Y34	Z34	X35	Y35	Z35	X36	Y36	Z36	X37	Y37	Z37	X38	Y38	Z38	X39	Y39	Z39	X40	Y40	Z40	X41	Y41	Z41	X42	Y42	Z42	X43	Y43	Z43	X44	Y44	Z44	X45	Y45	Z45	X46	Y46	Z46	X47	Y47	Z47	X48	Y48	Z48	X49	Y49	Z49	X50	Y50	Z50	X51	Y51	Z51	X52	Y52	Z52	X53	Y53	Z53	X54	Y54	Z54	X55	Y55	Z55	X56	Y56	Z56	X57	Y57	Z57	X58	Y58	Z58	X59	Y59	Z59	X60	Y60	Z60	X61	Y61	Z61	X62	Y62	Z62	X63	Y63	Z63	X64	Y64	Z64	X65	Y65	Z65	X66	Y66	Z66	X67	Y67	Z67	X68	Y68	Z68	

129	3.475	-118.294	1470.94	219.48	35.4781	1382.3	189.576	-3.55201	1404.28	369.245	-81.122	1441.01	32.2479	43.6421	1213.93	182.408	-219.752	1288.34	212.345	-41.4633	991.3579999999999	321.558	-53.0488	989.533	40.8577	-245.404	1042.79	221.044	-248.991	1043.79	142.512	-242.133	1092.75	182.721	-26.8452	1095.65	478.827	-0	0	0	-0	0	0	-0	0	0	106.006	852.8819999999999	436.324	100.891	868.063	393.13	59.7824	848.807	450.29	-195.643	1125.67	-70.13979999999999	-0	0	0	-0	0	0	-0	0	0	-190.072	859.365	-105.341	-233.358	877.89	-102.576	-172.254	869.157	-61.8378	-88.9669	827.582	3.45832	5.10337	624.385	47.4718	30.7287	722.9109999999999	61.1429	-0	0	0	-0	0	0	64.1859	538.4829999999999	92.7088	-9.2684	468.256	35.5722	-35.8322	197.76	36.3336	16.6747	324.091	103.09	-0	0	0	-0	0	0	-147.321	812.2089999999999	344.169	-163.02	596.09	300.349	-75.9838	712.934	320.664	-0	0	0	-0	0	0	-96.4344	499.144	230.213	-239.954	409.631	304.489	-288.019	208.526	285.671	-183.805	321.208	226.54	-0	0	0	-0	0	0	-396.338	89.5908	221.193	-102.303	45.5956	247.403	-176.67	31.2503	187.155	-198.989	23.0183	301.988	-308.11	37.1875	280.092	-227.095	122.874	243.191	-132.678	36.0783	200.794	-148.704	36.1322	291.351	-102.001	75.8439	95.75060000000001	194.59	75.49630000000001	67.5155	121.3	54.7537	125.067	99.29770000000001	50.5585	12.7975	-6.55985	42.216	30.8419	60.2173	137.556	73.99160000000001	161.016	55.8266	112.317	153.786	55.953	18.0253	-0	0	0	-247.197	1043.29	181.778	-200	0	0	-0	0	200	-0	200	0	
130	3.483333	-109.209	1469.77	218.714	44.2191	1380.7	188.954	5.31836	1403.05	368.601	-72.5061	1439.73	31.6895	52.0187	1212.25	182.125	-211.467	1287.59	211.413	-34.0536	990.3440000000001	321.512	-44.8135	987.946	40.4039	-237.535	1041.95	220.176	-240.825	1042.84	141.576	-234.094	1091.87	181.668	-18.045	1094.68	479.089	-0	0	0	-0	0	0	-0	0	0	117.629	853.45	435.829	111.784	868.716	392.621	71.0842	849.203	450.197	-190.504	1125.7	-70.04519999999999	-0	0	0	-0	0	0	-0	0	0	-188.908	859.592	-106.234	-231.612	878.698	-103.103	-169.904	869.162	-63.2417	-82.2406	825.971	2.54141	10.8091	622.48	48.9279	37.6305	721.023	62.4357	-0	0	0	-0	0	0	69.3999	537.093	94.8766	-0.964376	466.917	35.8686	-12.1002	194.97	36.3077	33.1775	323.597	103.78	-0	0	0	-0	0	0	-141.175	811.446	343.489	-159.402	595.412	300.337	-71.52630000000001	711.977	320.368	-0	0	0	-0	0	0	-94.68340000000001	498.027	230.159	-238.502	409.683	304.36	-287.728	208.677	285.57	-182.508	321.21	226.916	-0	0	0	-0	0	0	-396.345	89.5085	221.044	-102.263	45.4952	247.633	-176.663	31.1732	187.09	-199.031	22.9206	301.911	-308.217	37.1568	279.91	-227.056	122.798	243.128	-132.767	36.1186	200.746	-148.834	36.2277	291.239	-70.5091	68.35380000000001	97.6645	224.181	83.54730000000001	67.28619999999999	154.087	59.4416	123.06	130.434	55.0853	11.1326	25.0576	40.4233	30.8621	86.9727	138.896	73.96250000000001	191.579	61.8888	111.859	184.401	62.102	17.8097	-0	0	0	-239.18	1042.4	180.876	-200	0	0	-0	0	200	-0	200	0	
131	3.491667	-100.155	1468.46	217.888	53.0053	1378.94	188.342	13.6135	1401.7	367.89	-63.61	1438.37	31.0242	60.4927	1210.43	181.865	-202.957	1286.56	210.234	-26.6626	989.309	321.272	-36.1023	985.819	40.0721	-229.515	1041.02	218.734	-232.306	1041.68	140.333	-225.759	1090.83	180.051	-9.10042	1093.65	479.095	-0	0	0	-0	0	0	-0	0	0	128.98	853.981	435.201	122.441	869.168	392.152	82.7842	849.295	450.16	-184.932	1125.58	-70.1335	-0	0	0	-0	0	0	-0	0	0	-187.4	859.861	-107.019	-229.503	879.104	-103.409	-167.536	868.723	-63.875	-75.23009999999999	823.933	1.61828	16.3543	620.234	50.2695	44.4152	718.686	63.8919	-0	0	0	-0	0	0	75.06480000000001	535.249	97.1454	6.24611	465.08	36.1848	10.4966	192.789	36.7944	49.6897	323.634	104.064	-0	0	0	-0	0	0	-135.579	811.024	343.031	-157.111	595.7619999999999	300.139	-69.1037	710.871	321.637	-0	0	0	-0	0	0	-93.1611	496.997	230.382	-237.406	409.593	304.42	-287.336	208.822	285.478	-180.758	321.387	227.669	-0	0	0	-0	0	0	-396.338	89.4781	220.95	-102.432	45.609	247.516	-176.668	30.9803	187.199	-199.105	22.896	302.019	-308.274	37.1033	279.974	-227.121	122.693	243.074	-133.213	36.337	200.598	-148.889	36.2928	291.258	-40.5691	63.0305	98.1463	252.802	92.4218	66.9485	184.313	65.15860000000001	122.456	160.363	59.6428	10.643	55.6671	39.7436	30.9574	113.063	141.179	73.7119	221.411	69.55329999999999	112.093	213.912	68.9517	17.6529	-0	0	0	-230.91	1041.35	179.534	-200	0	0	-0	0	200	-0	200	0	
132	3.5	-91.07729999999999	1466.97	216.906	61.9386	1377.06	187.846	22.2755	1400.08	367.221	-54.3839	1436.99	30.086	68.8331	1208.47	181.348	-194.187	1285.29	208.948	-19.0646	988.2670000000001	320.806	-28.141	983.884	39.6772	-221.71	1039.95	217.863	-224.358	1040.58	139.428	-217.769	1089.73	179.03	-0.106815	1092.5	478.91	-0	0	0	-0	0	0	-0	0	0	140.172	854.035	434.695	132.984	869.336	391.368	94.15260000000001	849.269	449.99	-179.221	1125.37	-70.2962	-0	0	0	-0	0	0	-0	0	0	-184.855	859.769	-107.802	-226.822	879.527	-103.774	-164.815	868.285	-64.58029999999999	-68.58199999999999	821.405	0.919179	21.5579	617.572	51.1559	51.0099	716.048	65.3399	-0	0	0	-0	0	0	81.291	533.4	99.62009999999999	13.4452	463.065	37.1007	32.574	191.282	37.2638	65.9944	323.862	104.138	-0	0	0	-0	0	0	-129.926	810.47	342.575	-154.205	595.15	300.724	-63.297	709.372	320.717	-0	0	0	-0	0	0	-91.0723	495.944	230.805	-236.111	409.663	304.274	-286.926	208.915	285.459	-179.401	321.266	227.767	-0	0	0	-0	0	0	-396.526	89.5039	220.91	-102.301	45.4063	247.679	-176.897	30.8939	187.087	-199.304	22.8075	301.913	-308.245	37.0496	279.98	-227.081	122.666	243.015	-133.228	36.2377	200.59	-148.993	36.176	291.312	-11.6953	59.0688	98.54259999999999	280.148	101.959	66.4776	212.856	71.7897	122.679	189.133	64.6035	10.9124	85.8595	40.1945	31.3612	138.257	144.243	73.5848	250.046	77.9937	111.748	242.623	76.4371	17.6187	-0	0	0	-223.034	1040.26	178.645	-200	0	0	-0	0	200	-0	200	0	
